<?xml version="1.0" standalone="no"?>
<!DOCTYPE svg PUBLIC "-//W3C//DTD SVG 20010904//EN"
 "http://www.w3.org/TR/2001/REC-SVG-20010904/DTD/svg10.dtd">
<svg version="1.0" xmlns="http://www.w3.org/2000/svg"
 width="840.000000pt" height="494.000000pt" viewBox="0 0 840.000000 494.000000"
 preserveAspectRatio="xMidYMid meet">

<g transform="translate(0.000000,494.000000) scale(0.100000,-0.100000)"
fill="#f1f1f1" stroke="none">
<path d="M4145 4506 c-34 -15 -2282 -2273 -2304 -2313 -8 -17 -12 -46 -9 -80
8 -89 79 -143 171 -128 40 7 97 62 1119 1089 l1078 1081 1068 -1072 c738 -740
1080 -1077 1105 -1088 67 -28 121 -14 170 44 35 42 42 91 20 141 -22 49 -2235
2282 -2297 2318 -44 25 -77 27 -121 8z"/>
<path d="M4146 3706 c-22 -8 -50 -23 -63 -33 -13 -10 -372 -382 -798 -827
l-775 -809 2 -751 c3 -736 3 -752 23 -786 12 -19 40 -48 64 -65 l43 -30 484
-3 484 -3 0 728 c0 685 2 730 19 768 23 51 65 93 116 116 37 17 74 19 455 19
381 0 418 -2 455 -19 51 -23 93 -65 116 -116 17 -38 19 -83 19 -767 l0 -728
468 0 467 0 52 24 c36 17 60 38 80 67 l28 43 3 760 2 761 -551 575 c-856 892
-1010 1050 -1040 1066 -43 22 -109 26 -153 10z"/>
</g>
</svg>
