<?xml version="1.0" standalone="no"?>
<!DOCTYPE svg PUBLIC "-//W3C//DTD SVG 20010904//EN"
 "http://www.w3.org/TR/2001/REC-SVG-20010904/DTD/svg10.dtd">
<svg version="1.0" xmlns="http://www.w3.org/2000/svg"
 width="512.000000pt" height="512.000000pt" viewBox="0 0 512.000000 512.000000"
 preserveAspectRatio="xMidYMid meet">

<g transform="translate(0.000000,512.000000) scale(0.100000,-0.100000)"
fill="#f1f1f1" stroke="none">
<path d="M2210 5104 c-231 -49 -432 -247 -485 -477 -13 -57 -15 -132 -13 -466
l3 -397 25 -37 c14 -21 43 -50 64 -65 35 -24 49 -27 116 -27 68 0 81 3 118 29
23 16 52 45 65 65 22 35 22 44 27 421 l5 385 25 45 c14 24 45 58 68 75 l44 30
526 2 527 3 -56 -23 c-120 -50 -190 -115 -242 -225 l-32 -67 -3 -1653 -2
-1653 -359 3 -359 3 -44 30 c-23 17 -54 51 -68 75 l-25 45 -5 490 c-4 431 -7
494 -22 520 -68 124 -248 147 -345 43 -53 -56 -53 -59 -53 -590 0 -550 2 -564
68 -698 54 -110 168 -223 282 -279 135 -66 175 -71 578 -71 l352 0 0 -145 c0
-120 4 -156 20 -202 29 -84 83 -158 150 -207 83 -61 145 -81 255 -81 l90 0
670 224 c369 123 692 235 719 248 58 29 132 101 169 163 60 104 57 -22 57
2135 0 1637 -3 1979 -14 2021 -40 150 -160 270 -311 310 -75 21 -2491 19
-2585 -2z"/>
<path d="M975 4030 c-26 -13 -206 -186 -496 -477 -485 -487 -479 -480 -479
-575 0 -78 31 -115 492 -575 460 -459 487 -482 567 -483 91 0 184 65 209 146
8 29 12 139 12 373 l0 331 431 0 c296 0 445 4 477 12 66 16 135 87 151 154 24
98 -20 193 -110 238 l-53 26 -448 0 -448 0 0 333 c0 201 -4 347 -11 370 -13
49 -63 105 -114 128 -53 25 -130 24 -180 -1z"/>
</g>
</svg>
